<svg xmlns="http://www.w3.org/2000/svg" width="437" height="400" fill="#fff" viewBox="0 0 437 147"><path fill="#000" d="m29.386 119.456-.19.189q3.413 0 5.878.19 2.464 0 4.36-.19 2.085-.379 3.792-1.137 1.896-.948 3.602-2.654 3.223-3.034 4.171-6.636t.569-7.963l.19-14.408H.19L0 39.26q0-7.962 3.033-14.977 3.034-7.205 8.342-12.513 5.31-5.309 12.323-8.342Q30.903.206 38.865.205h14.409q5.687 0 10.617 2.086 5.12 1.896 8.91 5.498 3.792 3.602 6.067 8.531 2.275 4.74 2.275 10.428v9.479H51.757l-.19-9.1q-3.981-.38-8.91 0-4.93.19-8.531 3.602-3.224 3.033-4.171 6.636-.759 3.6-.569 7.962v14.22h51.568v47.775q0 7.963-3.034 15.167-3.033 7.015-8.341 12.323-5.31 5.308-12.513 8.532-7.016 3.033-14.978 3.033H27.68q-5.688 0-10.807-2.085-4.93-2.086-8.72-5.498a28.3 28.3 0 0 1-6.068-8.342Q0 125.523 0 119.835v-9.29h29.386zM92.202 146.567V26.558q0-5.687 2.085-10.617 2.276-4.93 6.067-8.531a26.2 26.2 0 0 1 8.721-5.498q5.12-2.086 10.806-1.896h14.599q7.962.38 14.977 3.412 7.204 3.034 12.513 8.342 5.308 5.31 8.342 12.323 3.033 7.016 3.033 14.978v107.306h-29.386v-63.89h-22.371v63.89zm29.386-91.57h22.371v-9.29q0-4.362-.758-7.963-.759-3.792-3.982-6.825a10.05 10.05 0 0 0-3.981-2.465 19.5 19.5 0 0 0-4.55-.948 29 29 0 0 0-4.74-.38h-4.36zM213.979 82.486v64.27h-29.765V.016h53.653q5.688 0 10.617 2.085 5.119 1.896 8.91 5.498t5.878 8.532q2.274 4.74 2.275 10.427v16.873q0 10.239-4.74 18.58-4.55 8.342-12.323 13.65l18.579 70.716h-31.471l-16.494-63.89zm22.182-45.122V26.938h-22.372v28.438q4.171.38 9.101.19t8.531-3.602q3.224-3.034 3.981-6.636.759-3.602.759-7.962M343.6.205v27.301h-40.571v36.78h29.386v27.49h-29.386v10.048q0 4.36.758 7.963.759 3.602 3.981 6.635 3.603 3.413 7.584 3.413H343.6v26.921l-31.092.19q-7.962 0-15.167-3.033-7.014-3.224-12.323-8.532-5.309-5.309-8.342-12.323-3.033-7.205-3.033-15.167V27.316q0-5.687 2.085-10.616 2.275-5.12 6.067-8.722a27.2 27.2 0 0 1 8.721-5.877q5.12-2.085 10.806-2.085zM355.106 146.567V26.558q0-5.687 2.085-10.617 2.275-4.93 6.067-8.531a26.2 26.2 0 0 1 8.721-5.498q5.12-2.086 10.807-1.896h14.598q7.962.38 14.977 3.412 7.204 3.034 12.513 8.342 5.309 5.31 8.342 12.323 3.033 7.016 3.033 14.978v107.306h-29.386v-63.89h-22.371v63.89zm29.386-91.57h22.371v-9.29q0-4.362-.758-7.963-.759-3.792-3.981-6.825a10.06 10.06 0 0 0-3.982-2.465 19.5 19.5 0 0 0-4.55-.948 29 29 0 0 0-4.739-.38h-4.361z"/></svg>